<?xml version="1.0" encoding="UTF-8"?>
<svg width="600px" height="600px" viewBox="0 0 600 600" version="1.1" xmlns="http://www.w3.org/2000/svg" xmlns:xlink="http://www.w3.org/1999/xlink">
    <title>assets/icon</title>
    <g id="/assets/icon" stroke="none" stroke-width="1" fill="none" fill-rule="evenodd">
        <g id="amber-alert-homey" transform="translate(0, 102)" fill="#000000" fill-rule="nonzero">
            <path d="M299.995247,0.00224926588 L299.995247,0.11603102 C321.997323,0.0766931432 343.98956,0.430734034 365.9818,1.24699498 C404.524771,2.67606628 443.024521,5.2028718 481.400007,9.07051212 L494.19326,10.399485 L500.591586,11.0841451 C527.010937,14.0010452 552.931482,18.3931843 572.281983,39.0211913 C594.480767,62.6829242 596.408532,89.9637417 597.923202,120.971823 L598.328213,129.476676 C599.310347,150.759659 599.884254,168.765074 599.988662,187.747869 C599.998225,191.134666 599.998225,194.521464 599.980428,197.908261 L599.998225,200.254724 C600.013091,211.025435 599.935322,221.796146 599.737221,232.566856 L599.546063,241.402142 L599.189286,255.721704 C598.775809,271.650992 598.2334,287.624149 596.841294,303.457645 C595.749552,315.976923 592.700537,328.476534 586.179583,339.363292 C572.055765,362.916845 548.706224,378.327459 521.520828,382.221908 C521.156913,382.27108 520.81267,382.261247 520.468426,382.27108 L519.761724,382.451016 C519.64224,382.477605 519.520935,382.500551 519.396353,382.516943 C491.502799,385.870496 463.55023,388.712658 435.538648,390.807401 C390.442755,394.190456 345.228837,395.921325 299.995247,396 L299.995247,395.89182 C254.781328,395.813145 209.557575,394.082278 164.461683,390.709054 C136.450102,388.60448 108.497533,385.752482 80.6138136,382.39893 C80.2302279,382.349758 79.8859846,382.251411 79.5319057,382.162902 L78.8375903,382.146147 C78.7199282,382.139954 78.600809,382.13012 78.4795042,382.11373 C51.2941071,378.219279 27.9445655,362.808665 13.8207484,339.255112 C7.29979383,328.358521 4.26061591,315.85891 3.15903687,303.349465 C1.35913539,282.756088 0.975549828,261.94635 0.454266886,241.284131 L0.444431359,240.526877 C0.110023435,227.073322 -0.0178384186,213.609934 0.00197663528,200.136711 L0.0200071644,197.782723 C0.00197663528,194.399055 0.00197663528,191.014766 0.0116681629,187.629856 C0.134612253,167.005839 0.803166209,147.52748 1.9386363,123.730523 L2.28171733,116.772743 C3.80135168,87.4546272 6.49892155,61.5210106 27.7183483,38.9031777 C47.0688476,18.2751707 72.9893932,13.8830315 99.4087452,10.9726801 L110.926908,9.75381085 C151.842702,5.4266444 192.906028,2.65332409 234.018531,1.13881582 C256.01077,0.312720405 278.00301,-0.0314860182 299.995247,0.00224926588 Z M314.574449,195.6777 L299.890009,210.370397 L307.227312,217.706911 C338.238727,248.724828 338.238727,299.185488 307.227312,330.193569 L299.890009,337.549753 L314.574449,352.232616 L321.921589,344.886268 C361.037481,305.784418 361.037481,242.135732 321.921589,203.024048 L314.574449,195.6777 Z M285.139666,225.110299 L270.445389,239.802995 L277.792529,247.149346 C292.575325,261.930553 292.575325,285.985663 277.792529,300.76687 L270.445389,308.113221 L285.139666,322.805917 L292.486806,315.449733 C315.374079,292.574759 315.374079,255.331623 292.486806,232.456648 L285.139666,225.110299 Z M537.086533,223.914428 L458.658039,223.914428 L458.658039,244.419296 L485.951626,244.419296 L485.951626,315.404494 L509.792944,315.404494 L509.792944,244.419296 L537.086533,244.419296 L537.086533,223.914428 Z M417.080314,223.920329 L370.430409,223.920329 L370.430409,315.400561 L394.261891,315.400561 L394.261891,282.091214 L412.339591,282.091214 C420.585234,282.091214 422.96087,288.640903 424.635717,296.00587 L424.985771,297.594465 L425.832928,301.590433 C426.786727,306.247014 428.351829,315.400561 428.351829,315.400561 L451.937423,315.400561 L448.625402,297.758059 L448.091732,294.77768 C446.586896,286.152849 442.613342,275.570962 434.764593,272.866481 L434.764593,272.610787 C444.373902,268.893357 449.114627,259.540777 449.114627,249.666969 C449.114627,231.217505 433.220414,223.920329 417.080314,223.920329 Z M121.429284,223.910494 L97.2043808,223.910494 L62.9865817,315.400561 L87.4573733,315.400561 L93.2308279,298.996667 L125.137278,298.996667 L130.782871,315.400561 L155.637248,315.400561 L121.429284,223.910494 Z M186.55031,223.915411 L162.718828,223.915411 L162.718828,315.395645 L229.226662,315.395645 L229.226662,294.90061 L186.55031,294.90061 L186.55031,223.915411 Z M239.442824,262.413425 C233.069403,268.795994 233.069403,279.122187 239.442824,285.494923 C245.816246,291.867659 256.153386,291.867659 262.526806,285.494923 C268.900228,279.122187 268.900228,268.795994 262.526806,262.413425 C256.153386,256.030853 245.816246,256.030853 239.442824,262.413425 Z M109.380763,249.283425 L119.501521,281.324127 L98.7387231,281.324127 L109.115204,249.283425 L109.380763,249.283425 Z M413.234622,243.009034 C419.893275,243.009034 425.273309,246.087223 425.273309,252.873005 C425.273309,259.796473 421.437452,263.64175 414.257517,263.64175 L394.261891,263.64175 L394.261891,243.009034 L413.234622,243.009034 Z M319.598436,73.1470975 L276.794224,73.1470975 L276.794224,164.637165 L320.749194,164.637165 C340.361234,164.637165 356.373472,157.969395 356.373472,136.186045 C356.373472,125.81068 350.35413,117.353037 340.616958,114.530544 C347.796893,110.940963 352.66548,104.283027 352.66548,96.0810797 C352.66548,76.9923751 335.354953,72.8914013 319.598436,73.1470975 Z M442.242543,73.1382464 L369.33178,73.1382464 L369.33178,164.638148 L443.530997,164.638148 L443.530997,144.13328 L393.163264,144.13328 L393.163264,126.7066 L438.023102,126.7066 L438.023102,108.257136 L393.163264,108.257136 L393.163264,92.2367857 L442.242543,92.2367857 L442.242543,73.1382464 Z M195.924551,73.1461141 L160.811719,73.1461141 L160.811719,164.636181 L183.236721,164.636181 L183.236721,95.1851596 L183.492444,95.1851596 L202.711065,164.636181 L220.916625,164.636181 L240.135245,95.1851596 L240.390969,95.1851596 L240.390969,164.636181 L262.815971,164.636181 L262.815971,73.1461141 L227.703139,73.1461141 L211.946625,134.139492 L211.681066,134.139492 L195.924551,73.1461141 Z M119.538896,73.1421803 L95.323828,73.1421803 L61.0961935,164.632247 L85.5768205,164.632247 L91.3404395,148.228353 L123.256725,148.228353 L128.892482,164.632247 L153.756695,164.632247 L119.538896,73.1421803 Z M503.773602,73.1431639 L457.123695,73.1431639 L457.123695,164.633231 L480.955179,164.633231 L480.955179,131.323884 L499.032877,131.323884 C508.260146,131.323884 510.136594,139.534198 511.90609,147.895837 L512.526213,150.823103 C513.480015,155.479684 515.045115,164.633231 515.045115,164.633231 L538.630709,164.633231 L535.31869,146.984899 L534.78502,144.000515 C533.280184,135.385519 529.296796,124.813465 521.448044,122.089317 L521.448044,121.833621 C531.057353,118.126026 535.807913,108.763611 535.807913,98.8996385 C535.807913,80.4501744 519.913702,73.1431639 503.773602,73.1431639 Z M319.726299,124.522365 C326.906233,124.522365 332.541991,127.217009 332.541991,135.291108 C332.541991,142.843981 327.28982,145.538625 319.726299,145.538625 L300.63554,145.538625 L300.63554,124.522365 L319.726299,124.522365 Z M107.490375,98.5151109 L117.611133,130.555812 L96.8581703,130.555812 L107.234652,98.5151109 L107.490375,98.5151109 Z M499.92791,92.2318685 C506.586563,92.2318685 511.966597,95.3198918 511.966597,102.105676 C511.966597,109.029142 508.120905,112.864585 500.950806,112.864585 L480.955179,112.864585 L480.955179,92.2318685 L499.92791,92.2318685 Z M319.08699,91.5965618 C324.083437,91.5965618 328.824161,93.7699796 328.824161,100.43775 C328.824161,106.967837 323.188404,109.160924 319.08699,109.160924 L300.63554,109.160924 L300.63554,91.5965618 L319.08699,91.5965618 Z" id="Shape"></path>
        </g>
    </g>
</svg>